<svg width="243" height="339" viewBox="0 0 243 339" fill="none" xmlns="http://www.w3.org/2000/svg">
<g style="mix-blend-mode:color-dodge">
<path d="M205.352 158.535C213.013 147.723 217.721 135.099 219.009 121.911C220.298 108.723 218.123 95.4268 212.699 83.3364C207.275 71.246 198.791 60.7796 188.083 52.9712C177.376 45.1628 164.816 40.2826 151.645 38.8128V0.209473H117.145V38.3237H93.634V0.209473H59.0359V38.3237H0.339844V81.459H41.3945V257H0.339844V300.135H59.0359V338.217H93.5361V300.135H117.047V338.217H151.645V300.135H166.156C182.823 300.117 199.025 294.638 212.282 284.537C225.538 274.437 235.119 260.271 239.558 244.208C243.997 228.146 243.049 211.071 236.86 195.598C230.67 180.126 219.58 167.107 205.287 158.535H205.352ZM143.134 81.459C151.912 81.459 160.331 84.9456 166.538 91.1518C172.745 97.358 176.232 105.775 176.232 114.552C176.232 123.329 172.745 131.747 166.538 137.953C160.331 144.159 151.912 147.646 143.134 147.646H84.4382V81.459H143.134ZM166.156 257H84.6339V190.781H166.156C174.759 191.051 182.919 194.657 188.908 200.837C194.898 207.017 198.248 215.285 198.248 223.89C198.248 232.496 194.898 240.764 188.908 246.944C182.919 253.123 174.759 256.73 166.156 257Z" fill="#03FFFF"/>
</g>
</svg>
