<svg width="443"  height="450" viewBox="0 0 443 450" fill="none" xmlns="http://www.w3.org/2000/svg">
<g style="mix-blend-mode:color-dodge">
<path d="M221.5 450C177.69 450 134.864 436.803 98.4379 412.078C62.0117 387.354 33.6215 352.212 16.8577 311.096C0.0938358 269.981 -4.29073 224.739 4.25853 181.093C12.8078 137.446 33.9068 97.3549 64.8874 65.8894C95.868 34.4239 135.338 12.9974 178.307 4.31941C221.276 -4.35855 265.814 0.101875 306.287 17.1366C346.76 34.1714 381.351 63.0153 405.686 100.021C430.021 137.026 443.006 180.531 443 225.033C442.931 284.682 419.572 341.868 378.046 384.043C336.521 426.219 280.221 449.939 221.5 450ZM221.5 5.98957C178.85 5.98306 137.156 18.8242 101.69 42.889C66.2248 66.9539 38.5812 101.161 22.2552 141.186C5.92927 181.21 1.65435 225.254 9.97105 267.746C18.2878 310.238 38.8225 349.271 68.9785 379.908C99.1344 410.545 137.557 431.411 179.387 439.865C221.217 448.32 264.576 443.984 303.981 427.406C343.385 410.828 377.064 382.753 400.76 346.73C424.456 310.708 437.104 268.357 437.104 225.033C437.018 166.981 414.273 111.332 373.856 70.2886C333.439 29.2455 278.649 6.15793 221.5 6.08829V5.98957Z" fill="#03FFFF"/>
</g>
</svg>
